<?xml version="1.0" encoding="UTF-8" standalone="no"?>
<!DOCTYPE svg PUBLIC "-//W3C//DTD SVG 1.1//EN" "http://www.w3.org/Graphics/SVG/1.1/DTD/svg11.dtd">
<svg version="1.1" xmlns="http://www.w3.org/2000/svg" xmlns:xlink="http://www.w3.org/1999/xlink" preserveAspectRatio="xMidYMid meet" viewBox="0 0 24 24" width="24" height="24"><defs><path d="M24 12C24 18.62 18.62 24 12 24C5.38 24 0 18.62 0 12C0 5.38 5.38 0 12 0C18.62 0 24 5.38 24 12Z" id="afiCXJOsg"></path><clipPath id="clipgTbuAOlV0"><use xlink:href="#afiCXJOsg" opacity="1"></use></clipPath><path d="M24 0L24 24L0 24L0 0L24 0Z" id="crUY5dBOf"></path><path d="M12.68 3.63L12.8 3.66L12.93 3.69L13.04 3.74L13.16 3.8L13.27 3.87L13.37 3.95L13.47 4.04L13.56 4.13L13.64 4.23L13.72 4.34L13.79 4.46L13.85 4.58L13.91 4.71L13.95 4.84L13.99 4.98L14.01 5.12L14.03 5.26L14.03 5.41L14.03 11.73L14.84 11.73L14.98 11.74L15.11 11.76L15.23 11.79L15.35 11.82L15.47 11.87L15.59 11.93L15.69 12L15.8 12.08L15.9 12.17L15.99 12.26L16.07 12.36L16.15 12.47L16.22 12.59L16.28 12.71L16.33 12.84L16.38 12.97L16.42 13.11L16.44 13.25L16.46 13.39L16.46 13.54L16.46 17.6L16.47 17.68L16.47 17.75L16.49 17.82L16.5 17.89L16.53 17.95L16.55 18.02L16.58 18.08L16.62 18.14L16.66 18.19L16.7 18.24L16.75 18.29L16.79 18.33L16.85 18.37L16.9 18.41L16.96 18.44L17.02 18.46L17.08 18.48L17.14 18.5L17.21 18.5L17.27 18.51L17.34 18.5L17.4 18.5L17.47 18.48L17.53 18.46L17.59 18.44L17.64 18.41L17.7 18.37L17.75 18.33L17.8 18.29L17.84 18.24L17.89 18.19L17.92 18.14L17.96 18.08L17.99 18.02L18.02 17.95L18.04 17.89L18.06 17.82L18.07 17.75L18.08 17.68L18.08 17.6L18.08 11.09L18.04 11.11L18.01 11.12L17.97 11.14L17.93 11.16L17.89 11.17L17.85 11.18L17.81 11.2L17.77 11.21L17.73 11.22L17.69 11.23L17.65 11.24L17.61 11.25L17.57 11.26L17.53 11.26L17.49 11.27L17.44 11.27L17.4 11.28L17.36 11.28L17.32 11.28L17.27 11.28L17.11 11.27L16.94 11.25L16.79 11.21L16.63 11.17L16.48 11.1L16.34 11.03L16.21 10.94L16.08 10.84L15.96 10.74L15.84 10.62L15.74 10.49L15.64 10.36L15.55 10.21L15.47 10.06L15.41 9.9L15.35 9.74L15.31 9.56L15.27 9.39L15.26 9.21L15.25 9.02L15.25 8.88L15.26 8.74L15.28 8.6L15.31 8.46L15.35 8.33L15.39 8.2L15.43 8.08L15.49 7.96L15.55 7.84L15.61 7.73L15.69 7.62L15.76 7.52L15.85 7.42L15.93 7.33L16.03 7.25L16.12 7.17L16.23 7.1L16.33 7.03L16.44 6.97L16.55 6.92L14.84 5.01L15.7 4.05L18.71 7.41L18.7 7.42L18.76 7.49L18.81 7.55L18.86 7.62L18.91 7.69L18.95 7.76L18.99 7.83L19.03 7.91L19.07 7.98L19.1 8.06L19.14 8.14L19.17 8.22L19.19 8.31L19.22 8.39L19.24 8.48L19.25 8.57L19.27 8.66L19.28 8.75L19.29 8.84L19.29 8.93L19.3 9.02L19.3 17.6L19.29 17.79L19.27 17.97L19.24 18.15L19.19 18.32L19.14 18.48L19.07 18.64L18.99 18.79L18.9 18.94L18.81 19.07L18.7 19.2L18.59 19.32L18.47 19.43L18.34 19.52L18.2 19.61L18.06 19.68L17.91 19.75L17.76 19.8L17.6 19.83L17.44 19.85L17.27 19.86L17.11 19.85L16.94 19.83L16.79 19.8L16.63 19.75L16.48 19.68L16.34 19.61L16.21 19.52L16.08 19.43L15.96 19.32L15.84 19.2L15.74 19.07L15.64 18.94L15.55 18.79L15.47 18.64L15.41 18.48L15.35 18.32L15.31 18.15L15.27 17.97L15.26 17.79L15.25 17.6L15.25 13.09L14.03 13.09L14.03 19.86L5.94 19.86L5.94 5.41L5.95 5.26L5.96 5.12L5.99 4.98L6.02 4.84L6.07 4.71L6.12 4.58L6.18 4.46L6.25 4.34L6.33 4.23L6.42 4.13L6.51 4.04L6.61 3.95L6.71 3.87L6.82 3.8L6.93 3.74L7.05 3.69L7.17 3.66L7.3 3.63L7.43 3.61L7.56 3.6L12.42 3.6L12.55 3.61L12.68 3.63ZM9.18 13.09L9.18 17.15L12.42 10.83L10.8 10.83L10.8 6.31L7.56 13.09L9.18 13.09ZM16.7 8.38L16.53 8.67L16.46 9.02L16.53 9.37L16.7 9.66L16.96 9.85L17.27 9.93L17.59 9.85L17.84 9.66L18.02 9.37L18.08 9.02L18.02 8.67L17.84 8.38L17.59 8.19L17.27 8.12L16.96 8.19L16.7 8.38Z" id="b16DaUE9b0"></path></defs><g><g><g><use xlink:href="#afiCXJOsg" opacity="1" fill="#1caded" fill-opacity="1"></use><g clip-path="url(#clipgTbuAOlV0)"><use xlink:href="#afiCXJOsg" opacity="1" fill-opacity="0" stroke="#fff0f0" stroke-width="2" stroke-opacity="1"></use></g></g><g><use xlink:href="#crUY5dBOf" opacity="1" fill="#000000" fill-opacity="0"></use><g><use xlink:href="#crUY5dBOf" opacity="1" fill-opacity="0" stroke="#000000" stroke-width="1" stroke-opacity="0"></use></g></g><g><g></g><use xlink:href="#b16DaUE9b0" opacity="1" fill="#ffffff" fill-opacity="1"></use><g><use xlink:href="#b16DaUE9b0" opacity="1" fill-opacity="0" stroke="#000000" stroke-width="1" stroke-opacity="0"></use></g></g></g></g></svg>