<?xml version="1.0" encoding="UTF-8" standalone="no"?>
<!DOCTYPE svg PUBLIC "-//W3C//DTD SVG 1.1//EN" "http://www.w3.org/Graphics/SVG/1.1/DTD/svg11.dtd">
<svg version="1.1" xmlns="http://www.w3.org/2000/svg" xmlns:xlink="http://www.w3.org/1999/xlink" preserveAspectRatio="xMidYMid meet" viewBox="0 0 24 24" width="24" height="24"><defs><path d="M24 0L24 24L0 24L0 0L24 0Z" id="b1ceXIhZJW"></path><path d="M8.56 12.95L8.56 15.88L11.11 11.43L9.46 11.43L9.46 8.06L6.91 12.95" id="a1PdgXZpC"></path><path d="M12.28 3.02L12.42 3.04L12.55 3.08L12.68 3.12L12.81 3.17L12.93 3.23L13.05 3.3L13.16 3.37L13.26 3.45L13.36 3.54L13.46 3.64L13.55 3.74L13.63 3.84L13.7 3.95L13.77 4.07L13.83 4.19L13.88 4.32L13.92 4.45L13.96 4.58L13.98 4.72L13.99 4.86L14 5L14 12L15 12L15.14 12.01L15.28 12.02L15.42 12.04L15.55 12.08L15.68 12.12L15.81 12.17L15.93 12.23L16.05 12.3L16.16 12.37L16.26 12.45L16.36 12.54L16.46 12.64L16.55 12.74L16.63 12.84L16.7 12.95L16.77 13.07L16.83 13.19L16.88 13.32L16.92 13.45L16.96 13.58L16.98 13.72L16.99 13.86L17 14L17 18.5L17 18.57L17.01 18.64L17.02 18.71L17.04 18.78L17.06 18.84L17.09 18.9L17.12 18.96L17.15 19.02L17.19 19.08L17.23 19.13L17.27 19.18L17.32 19.23L17.37 19.27L17.42 19.31L17.48 19.35L17.54 19.38L17.6 19.41L17.66 19.44L17.72 19.46L17.79 19.48L17.86 19.49L17.93 19.5L18 19.5L18.07 19.5L18.14 19.49L18.21 19.48L18.28 19.46L18.34 19.44L18.4 19.41L18.46 19.38L18.52 19.35L18.58 19.31L18.63 19.27L18.68 19.23L18.73 19.18L18.77 19.13L18.81 19.08L18.85 19.02L18.88 18.96L18.91 18.9L18.94 18.84L18.96 18.78L18.98 18.71L18.99 18.64L19 18.57L19 18.5L19 11.29L18.96 11.31L18.92 11.32L18.88 11.34L18.84 11.35L18.79 11.37L18.75 11.38L18.71 11.39L18.67 11.41L18.63 11.42L18.58 11.43L18.54 11.44L18.5 11.45L18.45 11.46L18.41 11.47L18.37 11.47L18.32 11.48L18.28 11.48L18.23 11.49L18.19 11.49L18.14 11.5L18.09 11.5L18.05 11.5L18 11.5L17.82 11.49L17.65 11.48L17.48 11.44L17.31 11.4L17.15 11.35L16.99 11.29L16.84 11.21L16.69 11.13L16.55 11.04L16.42 10.94L16.29 10.83L16.17 10.71L16.06 10.58L15.96 10.45L15.87 10.31L15.79 10.16L15.71 10.01L15.65 9.85L15.6 9.69L15.56 9.52L15.52 9.35L15.51 9.18L15.5 9L15.5 8.86L15.51 8.72L15.53 8.59L15.56 8.46L15.59 8.33L15.63 8.2L15.67 8.08L15.73 7.96L15.78 7.84L15.85 7.73L15.92 7.62L15.99 7.52L16.07 7.42L16.15 7.32L16.24 7.23L16.34 7.14L16.44 7.06L16.54 6.98L16.65 6.9L16.76 6.84L16.87 6.78L16.99 6.72L17.11 6.67L15 4.56L16.06 3.5L19.78 7.22L19.77 7.23L19.83 7.29L19.88 7.35L19.94 7.42L19.99 7.48L20.04 7.55L20.09 7.62L20.13 7.69L20.17 7.76L20.21 7.83L20.25 7.91L20.29 7.99L20.32 8.06L20.35 8.14L20.38 8.22L20.4 8.31L20.43 8.39L20.44 8.47L20.46 8.56L20.48 8.65L20.49 8.73L20.49 8.82L20.5 8.91L20.5 9L20.5 18.5L20.49 18.68L20.48 18.85L20.44 19.02L20.4 19.19L20.35 19.35L20.29 19.51L20.21 19.66L20.13 19.81L20.04 19.95L19.94 20.08L19.83 20.21L19.71 20.33L19.58 20.44L19.45 20.54L19.31 20.63L19.16 20.71L19.01 20.79L18.85 20.85L18.69 20.9L18.52 20.94L18.35 20.98L18.18 20.99L18 21L17.82 20.99L17.65 20.98L17.48 20.94L17.31 20.9L17.15 20.85L16.99 20.79L16.84 20.71L16.69 20.63L16.55 20.54L16.42 20.44L16.29 20.33L16.17 20.21L16.06 20.08L15.96 19.95L15.87 19.81L15.79 19.66L15.71 19.51L15.65 19.35L15.6 19.19L15.56 19.02L15.52 18.85L15.51 18.68L15.5 18.5L15.5 13.5L14 13.5L14 21L4 21L4 5L4.01 4.86L4.02 4.72L4.04 4.58L4.08 4.45L4.12 4.32L4.17 4.19L4.23 4.07L4.3 3.95L4.37 3.84L4.45 3.74L4.54 3.64L4.64 3.54L4.74 3.45L4.84 3.37L4.95 3.3L5.07 3.23L5.19 3.17L5.32 3.12L5.45 3.08L5.58 3.04L5.72 3.02L5.86 3.01L6 3L12 3L12.14 3.01L12.28 3.02ZM8 13.5L8 18L12 11L10 11L10 6L6 13.5L8 13.5ZM17.29 8.29L17.08 8.61L17 9L17.08 9.39L17.29 9.71L17.61 9.92L18 10L18.39 9.92L18.71 9.71L18.92 9.39L19 9L18.92 8.61L18.71 8.29L18.39 8.08L18 8L17.61 8.08L17.29 8.29Z" id="db8MLjcJ5"></path></defs><g><g><g><use xlink:href="#b1ceXIhZJW" opacity="1" fill="#000000" fill-opacity="0"></use><g><use xlink:href="#b1ceXIhZJW" opacity="1" fill-opacity="0" stroke="#000000" stroke-width="1" stroke-opacity="0"></use></g></g><g><use xlink:href="#a1PdgXZpC" opacity="1" fill="#edda1c" fill-opacity="1"></use><g><use xlink:href="#a1PdgXZpC" opacity="1" fill-opacity="0" stroke="#edda1c" stroke-width="2" stroke-opacity="1"></use></g></g><g><g><filter id="shadow10673367" x="-5" y="-6" width="35.5" height="37" filterUnits="userSpaceOnUse" primitiveUnits="userSpaceOnUse"><feFlood></feFlood><feComposite in2="SourceAlpha" operator="in"></feComposite><feGaussianBlur stdDeviation="1"></feGaussianBlur><feOffset dx="1" dy="1" result="afterOffset"></feOffset><feFlood flood-color="#000000" flood-opacity="0.55"></feFlood><feComposite in2="afterOffset" operator="in"></feComposite><feMorphology operator="dilate" radius="1"></feMorphology><feComposite in2="SourceAlpha" operator="out"></feComposite></filter><path d="M12.28 3.02L12.42 3.04L12.55 3.08L12.68 3.12L12.81 3.17L12.93 3.23L13.05 3.3L13.16 3.37L13.26 3.45L13.36 3.54L13.46 3.64L13.55 3.74L13.63 3.84L13.7 3.95L13.77 4.07L13.83 4.19L13.88 4.32L13.92 4.45L13.96 4.58L13.98 4.72L13.99 4.86L14 5L14 12L15 12L15.14 12.01L15.28 12.02L15.42 12.04L15.55 12.08L15.68 12.12L15.81 12.17L15.93 12.23L16.05 12.3L16.16 12.37L16.26 12.45L16.36 12.54L16.46 12.64L16.55 12.74L16.63 12.84L16.7 12.95L16.77 13.07L16.83 13.19L16.88 13.32L16.92 13.45L16.96 13.58L16.98 13.72L16.99 13.86L17 14L17 18.5L17 18.57L17.01 18.64L17.02 18.71L17.04 18.78L17.06 18.84L17.09 18.9L17.12 18.96L17.15 19.02L17.19 19.08L17.23 19.13L17.27 19.18L17.32 19.23L17.37 19.27L17.42 19.31L17.48 19.35L17.54 19.38L17.6 19.41L17.66 19.44L17.72 19.46L17.79 19.48L17.86 19.49L17.93 19.5L18 19.5L18.07 19.5L18.14 19.49L18.21 19.48L18.28 19.46L18.34 19.44L18.4 19.41L18.46 19.38L18.52 19.35L18.58 19.31L18.63 19.27L18.68 19.23L18.73 19.18L18.77 19.13L18.81 19.08L18.85 19.02L18.88 18.96L18.91 18.9L18.94 18.84L18.96 18.78L18.98 18.71L18.99 18.64L19 18.57L19 18.5L19 11.29L18.96 11.31L18.92 11.32L18.88 11.34L18.84 11.35L18.79 11.37L18.75 11.38L18.71 11.39L18.67 11.41L18.63 11.42L18.58 11.43L18.54 11.44L18.5 11.45L18.45 11.46L18.41 11.47L18.37 11.47L18.32 11.48L18.28 11.48L18.23 11.49L18.19 11.49L18.14 11.5L18.09 11.5L18.05 11.5L18 11.5L17.82 11.49L17.65 11.48L17.48 11.44L17.31 11.4L17.15 11.35L16.99 11.29L16.84 11.21L16.69 11.13L16.55 11.04L16.42 10.94L16.29 10.83L16.17 10.71L16.06 10.58L15.96 10.45L15.87 10.31L15.79 10.16L15.71 10.01L15.65 9.85L15.6 9.69L15.56 9.52L15.52 9.35L15.51 9.18L15.5 9L15.5 8.86L15.51 8.72L15.53 8.59L15.56 8.46L15.59 8.33L15.63 8.2L15.67 8.08L15.73 7.96L15.78 7.84L15.85 7.73L15.92 7.62L15.99 7.52L16.07 7.42L16.15 7.32L16.24 7.23L16.34 7.14L16.44 7.06L16.54 6.98L16.65 6.9L16.76 6.84L16.87 6.78L16.99 6.72L17.11 6.67L15 4.56L16.06 3.5L19.78 7.22L19.77 7.23L19.83 7.29L19.88 7.35L19.94 7.42L19.99 7.48L20.04 7.55L20.09 7.62L20.13 7.69L20.17 7.76L20.21 7.83L20.25 7.91L20.29 7.99L20.32 8.06L20.35 8.14L20.38 8.22L20.4 8.31L20.43 8.39L20.44 8.47L20.46 8.56L20.48 8.65L20.49 8.73L20.49 8.82L20.5 8.91L20.5 9L20.5 18.5L20.49 18.68L20.48 18.85L20.44 19.02L20.4 19.19L20.35 19.35L20.29 19.51L20.21 19.66L20.13 19.81L20.04 19.95L19.94 20.08L19.83 20.21L19.71 20.33L19.58 20.44L19.45 20.54L19.31 20.63L19.16 20.71L19.01 20.79L18.85 20.85L18.69 20.9L18.52 20.94L18.35 20.98L18.18 20.99L18 21L17.82 20.99L17.65 20.98L17.48 20.94L17.31 20.9L17.15 20.85L16.99 20.79L16.84 20.71L16.69 20.63L16.55 20.54L16.42 20.44L16.29 20.33L16.17 20.21L16.06 20.08L15.96 19.95L15.87 19.81L15.79 19.66L15.71 19.51L15.65 19.35L15.6 19.19L15.56 19.02L15.52 18.85L15.51 18.68L15.5 18.5L15.5 13.5L14 13.5L14 21L4 21L4 5L4.01 4.86L4.02 4.72L4.04 4.58L4.08 4.45L4.12 4.32L4.17 4.19L4.23 4.07L4.3 3.95L4.37 3.84L4.45 3.74L4.54 3.64L4.64 3.54L4.74 3.45L4.84 3.37L4.95 3.3L5.07 3.23L5.19 3.17L5.32 3.12L5.45 3.08L5.58 3.04L5.72 3.02L5.86 3.01L6 3L12 3L12.14 3.01L12.28 3.02ZM8 13.5L8 18L12 11L10 11L10 6L6 13.5L8 13.5ZM17.29 8.29L17.08 8.61L17 9L17.08 9.39L17.29 9.71L17.61 9.92L18 10L18.39 9.92L18.71 9.71L18.92 9.39L19 9L18.92 8.61L18.71 8.29L18.39 8.08L18 8L17.61 8.08L17.29 8.29Z" id="b5atsUmtE" fill="white" fill-opacity="1" filter="url(#shadow10673367)"></path></g><use xlink:href="#db8MLjcJ5" opacity="1" fill="#10cf01" fill-opacity="1"></use><g><use xlink:href="#db8MLjcJ5" opacity="1" fill-opacity="0" stroke="#000000" stroke-width="1" stroke-opacity="1"></use></g></g></g></g></svg>