<?xml version="1.0" encoding="UTF-8"?>
<svg xmlns="http://www.w3.org/2000/svg" xmlns:xlink="http://www.w3.org/1999/xlink" width="20pt" height="33pt" viewBox="0 0 20 33" version="1.1">
<g id="surface1">
<path style="fill-rule:nonzero;fill:rgb(90.980392%,11.764706%,14.509804%);fill-opacity:1;stroke-width:37;stroke-linecap:butt;stroke-linejoin:miter;stroke:rgb(0%,0%,0%);stroke-opacity:1;stroke-miterlimit:10;" d="M 730.963914 1839.647716 C 692.112156 1649.396295 623.750047 1490.889193 540.951219 1344.178966 C 479.595164 1235.218739 408.473094 1134.838057 342.658641 1029.309648 C 320.791258 993.919023 301.683836 956.812489 280.665672 920.134932 C 238.417039 846.994307 204.235984 762.271295 206.359031 652.238625 C 208.482078 544.779818 239.478563 458.555386 284.487156 387.988625 C 358.156883 272.164761 481.505906 177.146295 647.315867 152.051125 C 782.766258 131.674705 909.724461 166.207375 999.741648 218.97158 C 1073.411375 261.869307 1130.309031 319.352261 1173.831492 387.13067 C 1219.052391 457.91192 1250.048875 541.348 1252.808836 650.308227 C 1254.082664 706.289761 1244.953563 757.981523 1232.002977 800.87925 C 1219.052391 844.205955 1198.034227 880.454534 1179.351414 919.276977 C 1143.047312 994.991466 1097.401805 1064.271295 1051.543992 1133.551125 C 915.032078 1340.103682 787.012352 1550.946011 730.963914 1839.647716 Z M 730.963914 1839.647716 " transform="matrix(0.0183993,0,0,0.0182119,-3.437479,-2.296487)"/>
<path style=" stroke:none;fill-rule:nonzero;fill:rgb(0%,0%,0%);fill-opacity:1;" d="M 13.359375 9.558594 C 13.359375 11.40625 11.847656 12.898438 9.984375 12.898438 C 8.121094 12.898438 6.613281 11.40625 6.613281 9.558594 C 6.613281 7.714844 8.121094 6.222656 9.984375 6.222656 C 11.847656 6.222656 13.359375 7.714844 13.359375 9.558594 Z M 13.359375 9.558594 "/>
</g>
</svg>
