<?xml version="1.0" encoding="UTF-8"?>
<svg xmlns="http://www.w3.org/2000/svg" xmlns:xlink="http://www.w3.org/1999/xlink" width="18pt" height="30pt" viewBox="0 0 18 30" version="1.1">
<g id="surface1">
<path style="fill-rule:nonzero;fill:rgb(90.980392%,11.764706%,14.509804%);fill-opacity:1;stroke-width:37;stroke-linecap:butt;stroke-linejoin:miter;stroke:rgb(0%,0%,0%);stroke-opacity:1;stroke-miterlimit:10;" d="M 731.034682 1839.712063 C 692.112156 1649.3105 623.938762 1490.996437 541.139934 1344.243313 C 479.571575 1235.240187 408.567451 1134.730812 342.752998 1029.26675 C 320.814847 994.112062 301.707425 956.833937 280.712851 920.263625 C 238.487807 847.123 204.283163 762.1855 206.40621 652.238625 C 208.529257 544.887062 239.667278 458.533937 284.487156 387.988625 C 358.086115 272.143312 481.694622 177.0605 647.292278 152.051125 C 782.69549 131.7605 909.842408 166.207375 999.718059 218.821438 C 1073.317017 261.998 1130.403389 319.330812 1173.807903 387.044875 C 1218.863675 457.826125 1250.001696 541.348 1252.596531 650.351125 C 1254.011896 706.268312 1244.812026 757.938625 1232.073745 800.87925 C 1219.099569 844.29175 1198.104995 880.390187 1179.469361 919.319875 C 1142.905776 994.819875 1097.378215 1064.1855 1051.61476 1133.551125 C 915.032078 1340.232375 786.941583 1550.924562 731.034682 1839.712063 Z M 731.034682 1839.712063 " transform="matrix(0.0165593,0,0,0.0165563,-3.093731,-2.087715)"/>
<path style=" stroke:none;fill-rule:nonzero;fill:rgb(0%,0%,0%);fill-opacity:1;" d="M 12.023438 8.691406 C 12.023438 10.367188 10.664062 11.726562 8.988281 11.726562 C 7.308594 11.726562 5.953125 10.367188 5.953125 8.691406 C 5.953125 7.015625 7.308594 5.65625 8.988281 5.65625 C 10.664062 5.65625 12.023438 7.015625 12.023438 8.691406 Z M 12.023438 8.691406 "/>
</g>
</svg>
