<?xml version="1.0" encoding="UTF-8" standalone="no"?>
<!-- Created with Inkscape (http://www.inkscape.org/) -->

<svg
   xmlns:dc="http://purl.org/dc/elements/1.1/"
   xmlns:cc="http://creativecommons.org/ns#"
   xmlns:rdf="http://www.w3.org/1999/02/22-rdf-syntax-ns#"
   xmlns:svg="http://www.w3.org/2000/svg"
   xmlns="http://www.w3.org/2000/svg"
   xmlns:sodipodi="http://sodipodi.sourceforge.net/DTD/sodipodi-0.dtd"
   xmlns:inkscape="http://www.inkscape.org/namespaces/inkscape"
   width="200"
   height="200"
   viewBox="0 0 52.916665 52.916668"
   version="1.1"
   id="svg8"
   inkscape:version="0.92.4 (5da689c313, 2019-01-14)"
   sodipodi:docname="chademo-2.svg">
  <defs
     id="defs2" />
  <sodipodi:namedview
     id="base"
     pagecolor="#ffffff"
     bordercolor="#666666"
     borderopacity="1.0"
     inkscape:pageopacity="0.0"
     inkscape:pageshadow="2"
     inkscape:zoom="4.04"
     inkscape:cx="100"
     inkscape:cy="100"
     inkscape:document-units="px"
     inkscape:current-layer="layer1"
     showgrid="false"
     units="px"
     inkscape:window-width="1920"
     inkscape:window-height="1001"
     inkscape:window-x="-9"
     inkscape:window-y="-9"
     inkscape:window-maximized="1" />
  <metadata
     id="metadata5">
    <rdf:RDF>
      <cc:Work
         rdf:about="">
        <dc:format>image/svg+xml</dc:format>
        <dc:type
           rdf:resource="http://purl.org/dc/dcmitype/StillImage" />
        <dc:title></dc:title>
      </cc:Work>
    </rdf:RDF>
  </metadata>
  <g
     inkscape:label="Layer 1"
     inkscape:groupmode="layer"
     id="layer1"
     transform="translate(0,-244.08332)">
    <g
       transform="matrix(0.07828718,0,0,0.07824797,-2.5909419,231.15474)"
       id="g73">
      <ellipse
         ry="72.676361"
         rx="69.104935"
         cy="506.64789"
         cx="512.14282"
         id="path4213"
         style="fill:none;fill-rule:evenodd;stroke:currentColor;stroke-width:65;stroke-linecap:butt;stroke-linejoin:miter;stroke-miterlimit:4;stroke-dasharray:none;stroke-opacity:1" />
      <ellipse
         style="fill:none;fill-rule:evenodd;stroke:currentColor;stroke-width:65;stroke-linecap:butt;stroke-linejoin:miter;stroke-miterlimit:4;stroke-dasharray:none;stroke-opacity:1"
         id="ellipse4215"
         cx="233.5714"
         cy="506.64789"
         rx="69.104935"
         ry="72.676361" />
      <g
         id="g4234"
         style="stroke:currentColor;stroke-opacity:1">
        <circle
           style="fill:none;fill-rule:evenodd;stroke:currentColor;stroke-width:10;stroke-linecap:butt;stroke-linejoin:miter;stroke-miterlimit:4;stroke-dasharray:none;stroke-opacity:1"
           id="path4221"
           cx="371.42859"
           cy="330.93365"
           r="70" />
      </g>
      <ellipse
         ry="17.092304"
         rx="16.378016"
         cy="330.93365"
         cx="319.85715"
         id="path4223"
         style="fill:none;fill-rule:evenodd;stroke:currentColor;stroke-width:7.30948782;stroke-linecap:butt;stroke-linejoin:miter;stroke-miterlimit:4;stroke-dasharray:none;stroke-opacity:1" />
      <ellipse
         style="fill:none;fill-rule:evenodd;stroke:currentColor;stroke-width:7.30948782;stroke-linecap:butt;stroke-linejoin:miter;stroke-miterlimit:4;stroke-dasharray:none;stroke-opacity:1"
         id="ellipse4225"
         cx="421.57144"
         cy="330.93365"
         rx="16.378016"
         ry="17.092304" />
      <ellipse
         ry="17.092304"
         rx="16.378016"
         cy="380.36221"
         cx="372.14288"
         id="ellipse4227"
         style="fill:none;fill-rule:evenodd;stroke:currentColor;stroke-width:7.30948782;stroke-linecap:butt;stroke-linejoin:miter;stroke-miterlimit:4;stroke-dasharray:none;stroke-opacity:1" />
      <g
         transform="translate(0,4)"
         id="g4231"
         style="stroke:currentColor;stroke-opacity:1">
        <ellipse
           ry="17.092304"
           rx="16.378016"
           cy="276.64792"
           cx="372.14288"
           id="ellipse4229"
           style="fill:none;fill-rule:evenodd;stroke:currentColor;stroke-width:7.30948782;stroke-linecap:butt;stroke-linejoin:miter;stroke-miterlimit:4;stroke-dasharray:none;stroke-opacity:1" />
      </g>
      <g
         transform="translate(2.9325188e-8,350)"
         id="g4248"
         style="stroke:currentColor;stroke-opacity:1">
        <circle
           r="70"
           cy="330.93365"
           cx="371.42859"
           id="circle4250"
           style="fill:none;fill-rule:evenodd;stroke:currentColor;stroke-width:10;stroke-linecap:butt;stroke-linejoin:miter;stroke-miterlimit:4;stroke-dasharray:none;stroke-opacity:1" />
      </g>
      <ellipse
         style="fill:none;fill-rule:evenodd;stroke:currentColor;stroke-width:7.30948782;stroke-linecap:butt;stroke-linejoin:miter;stroke-miterlimit:4;stroke-dasharray:none;stroke-opacity:1"
         id="ellipse4252"
         cx="319.85715"
         cy="680.93365"
         rx="16.378016"
         ry="17.092304" />
      <ellipse
         ry="17.092304"
         rx="16.378016"
         cy="680.93365"
         cx="421.57144"
         id="ellipse4254"
         style="fill:none;fill-rule:evenodd;stroke:currentColor;stroke-width:7.30948782;stroke-linecap:butt;stroke-linejoin:miter;stroke-miterlimit:4;stroke-dasharray:none;stroke-opacity:1" />
      <ellipse
         style="fill:none;fill-rule:evenodd;stroke:currentColor;stroke-width:7.30948782;stroke-linecap:butt;stroke-linejoin:miter;stroke-miterlimit:4;stroke-dasharray:none;stroke-opacity:1"
         id="ellipse4256"
         cx="372.14288"
         cy="730.36218"
         rx="16.378016"
         ry="17.092304" />
      <g
         transform="translate(2.9325188e-8,354)"
         id="g4258"
         style="stroke:currentColor;stroke-opacity:1">
        <ellipse
           style="fill:none;fill-rule:evenodd;stroke:currentColor;stroke-width:7.30948782;stroke-linecap:butt;stroke-linejoin:miter;stroke-miterlimit:4;stroke-dasharray:none;stroke-opacity:1"
           id="ellipse4260"
           cx="372.14288"
           cy="276.64792"
           rx="16.378016"
           ry="17.092304" />
      </g>
      <path
         sodipodi:nodetypes="caaaccccaaaaaaaaaaaaaaaacccc"
         inkscape:connector-curvature="0"
         id="path4271"
         d="m 198.57143,253.79078 c 0,0 52.58614,-29.39643 81.07143,-38.57143 27.98322,-9.01328 57.38863,-15.38044 86.78571,-15.71428 33.62262,-0.38182 67.55701,5.6582 99.64286,15.71428 28.14713,8.82164 79.64286,38.57143 79.64286,38.57143 l 38.57142,-8.57143 54.28572,54.28571 -11.42857,40 c 0,0 31.19161,55.83512 39.28571,86.42857 7.39899,27.96611 9.03609,57.52428 7.85714,86.42857 -1.35916,33.32263 -6.00647,67.13537 -17.14285,98.57143 -9.46744,26.72494 -24.36373,51.64402 -41.42857,74.28571 -16.82126,22.31851 -37.20196,42.11768 -59.14286,59.42858 -18.22165,14.37649 -38.25668,26.77452 -59.42857,36.28572 -21.57261,9.69122 -44.67141,16.05395 -67.85715,20.71429 -18.15873,3.64991 -36.76457,5.40224 -55.28571,5.57142 -18.27518,0.16693 -36.65813,-1.25041 -54.64286,-4.5 -18.52827,-3.3478 -36.85134,-8.42524 -54.35715,-15.35715 -19.70331,-7.80208 -38.75583,-17.59095 -56.42856,-29.28571 C 184.87727,742.39711 161.98922,724.79601 142.85714,703.79077 123.46882,682.5042 106.53896,658.41758 94.285714,632.3622 82.998053,608.36004 76.460387,582.10371 72.142857,555.93362 c -4.306381,-26.10252 -5.928935,-52.93559 -3.571429,-79.2857 2.39342,-26.75152 9.290857,-53.11578 17.857141,-78.57144 7.170886,-21.30908 27.857141,-61.42856 27.857141,-61.42856 l -9.42857,-41.71429 49.42857,-49.71428 z"
         style="fill:none;fill-rule:evenodd;stroke:currentColor;stroke-width:18;stroke-linecap:butt;stroke-linejoin:miter;stroke-miterlimit:4;stroke-dasharray:none;stroke-opacity:1" />
    </g>
  </g>
</svg>
