<!-- <svg xmlns="http://www.w3.org/2000/svg" width="64px" height="64px" -->
<svg version="1.1" id="Calque_1" xmlns="http://www.w3.org/2000/svg" xmlns:xlink="http://www.w3.org/1999/xlink" 
	 viewBox="0 0 50 50" style="enable-background:new 0 0 50 50;" width="64px" height="64px" xml:space="preserve">
    <g fill-rule="evenodd">
        <g transform="translate(8 0)">
            <path fill-rule="nonzero"
                d="M16.981 33.923C7.603 33.923 0 26.329 0 16.96 0 7.593 7.603 0 16.981 0c9.378 0 16.981 7.593 16.981 16.961 0 9.368-7.603 16.962-16.981 16.962zm0-3.134c7.648 0 13.847-6.191 13.847-13.828 0-7.636-6.199-13.827-13.847-13.827S3.134 9.325 3.134 16.961c0 7.637 6.2 13.828 13.847 13.828z" />
            <path
                d="M16.918 27.809C10.888 27.809 6 22.927 6 16.904 6 10.882 10.888 6 16.918 6c6.03 0 10.919 4.882 10.919 10.904 0 6.023-4.889 10.905-10.919 10.905zm-4.79-12.162c1.976 0 3.579-1.6 3.579-3.573A3.576 3.576 0 0 0 12.128 8.5a3.576 3.576 0 0 0-3.578 3.574 3.576 3.576 0 0 0 3.578 3.573zm9.5 0c1.976 0 3.579-1.6 3.579-3.573A3.576 3.576 0 0 0 21.628 8.5a3.576 3.576 0 0 0-3.578 3.574 3.576 3.576 0 0 0 3.578 3.573zm-4.75 11.5c1.976 0 3.579-1.6 3.579-3.573A3.576 3.576 0 0 0 16.878 20a3.576 3.576 0 0 0-3.578 3.574 3.576 3.576 0 0 0 3.578 3.573zm6.991-4.516a2.567 2.567 0 0 0 2.569-2.565 2.567 2.567 0 0 0-2.569-2.566 2.567 2.567 0 0 0-2.569 2.566 2.567 2.567 0 0 0 2.569 2.565zm-14 0a2.567 2.567 0 0 0 2.569-2.565A2.567 2.567 0 0 0 9.869 17.5 2.567 2.567 0 0 0 7.3 20.066a2.567 2.567 0 0 0 2.569 2.565z" />
            <path fill-rule="nonzero"
                d="M5.603 41.283a5.177 5.177 0 0 0 5.176 5.18h12.868a5.182 5.182 0 0 0 5.176-5.18 5.177 5.177 0 0 0-5.176-5.18H10.78a5.182 5.182 0 0 0-5.176 5.18zm-2.103 0C3.5 37.263 6.763 34 10.779 34h12.868a7.28 7.28 0 0 1 7.28 7.283 7.285 7.285 0 0 1-7.28 7.282H10.78a7.28 7.28 0 0 1-7.28-7.282z" />
            <path d="M11.5 32h10.827v3.116H11.5z" />
            <path fill-rule="nonzero"
                d="M11.62 45.73A4.617 4.617 0 0 1 7 41.115a4.617 4.617 0 0 1 4.62-4.615 4.617 4.617 0 0 1 4.619 4.615 4.617 4.617 0 0 1-4.62 4.615zm0-2.083a2.535 2.535 0 0 0 2.537-2.532 2.535 2.535 0 0 0-2.537-2.532 2.535 2.535 0 0 0-2.538 2.532 2.535 2.535 0 0 0 2.538 2.532zm11.5 2.083a4.617 4.617 0 0 1-4.62-4.615 4.617 4.617 0 0 1 4.62-4.615 4.617 4.617 0 0 1 4.619 4.615 4.617 4.617 0 0 1-4.62 4.615zm0-2.083a2.535 2.535 0 0 0 2.537-2.532 2.535 2.535 0 0 0-2.537-2.532 2.535 2.535 0 0 0-2.538 2.532 2.535 2.535 0 0 0 2.538 2.532z" />
            <ellipse cx="12.128" cy="12.074" rx="1.193" ry="1.191" />
            <ellipse cx="21.628" cy="12.074" rx="1.193" ry="1.191" />
            <ellipse cx="16.878" cy="23.574" rx="1.193" ry="1.191" />
            <ellipse cx="23.869" cy="20.066" rx="1" ry="1" />
            <ellipse cx="9.869" cy="20.066" rx="1" ry="1" />
        </g>
    </g>
</svg>