<?xml version="1.0" encoding="UTF-8" standalone="no"?>
<!-- Created with Inkscape (http://www.inkscape.org/) -->

<svg
   xmlns:dc="http://purl.org/dc/elements/1.1/"
   xmlns:cc="http://creativecommons.org/ns#"
   xmlns:rdf="http://www.w3.org/1999/02/22-rdf-syntax-ns#"
   xmlns:svg="http://www.w3.org/2000/svg"
   xmlns="http://www.w3.org/2000/svg"
   xmlns:sodipodi="http://sodipodi.sourceforge.net/DTD/sodipodi-0.dtd"
   xmlns:inkscape="http://www.inkscape.org/namespaces/inkscape"
   width="170"
   height="170"
   viewBox="0 0 44.979166 44.979168"
   version="1.1"
   id="svg3828"
   inkscape:version="0.92.4 (5da689c313, 2019-01-14)"
   sodipodi:docname="type2-2.svg">
  <defs
     id="defs3822" />
  <sodipodi:namedview
     id="base"
     pagecolor="#ffffff"
     bordercolor="#666666"
     borderopacity="1.0"
     inkscape:pageopacity="0.0"
     inkscape:pageshadow="2"
     inkscape:zoom="2.8"
     inkscape:cx="76.07143"
     inkscape:cy="129.03794"
     inkscape:document-units="px"
     inkscape:current-layer="layer1"
     showgrid="false"
     units="px"
     inkscape:window-width="1920"
     inkscape:window-height="1001"
     inkscape:window-x="-9"
     inkscape:window-y="-9"
     inkscape:window-maximized="1" />
  <metadata
     id="metadata3825">
    <rdf:RDF>
      <cc:Work
         rdf:about="">
        <dc:format>image/svg+xml</dc:format>
        <dc:type
           rdf:resource="http://purl.org/dc/dcmitype/StillImage" />
        <dc:title></dc:title>
      </cc:Work>
    </rdf:RDF>
  </metadata>
  <g
     inkscape:label="Layer 1"
     inkscape:groupmode="layer"
     id="layer1"
     transform="translate(0,-252.02082)">
    <g
       id="g4739"
       transform="matrix(0.26260022,0,0,0.2459196,-3.5156532,229.36071)">
      <ellipse
         style="fill:none;fill-opacity:1;fill-rule:evenodd;stroke:currentColor;stroke-width:9.19666767;stroke-linecap:butt;stroke-linejoin:miter;stroke-miterlimit:4;stroke-dasharray:none;stroke-dashoffset:0;stroke-opacity:1"
         id="ellipse4206"
         cx="120.29881"
         cy="215.00351"
         rx="13.311094"
         ry="13.14458" />
      <ellipse
         ry="13.14458"
         rx="13.311094"
         cy="215.00351"
         cx="77.674515"
         id="ellipse4208"
         style="fill:none;fill-opacity:1;fill-rule:evenodd;stroke:currentColor;stroke-width:9.19666767;stroke-linecap:butt;stroke-linejoin:miter;stroke-miterlimit:4;stroke-dasharray:none;stroke-dashoffset:0;stroke-opacity:1" />
      <ellipse
         style="fill:none;fill-opacity:1;fill-rule:evenodd;stroke:currentColor;stroke-width:9.19666767;stroke-linecap:butt;stroke-linejoin:miter;stroke-miterlimit:4;stroke-dasharray:none;stroke-dashoffset:0;stroke-opacity:1"
         id="ellipse4210"
         cx="57.61602"
         cy="179.50443"
         rx="13.311094"
         ry="13.14458" />
      <ellipse
         ry="13.14458"
         rx="13.311094"
         cy="179.50443"
         cx="98.986664"
         id="ellipse4212"
         style="fill:none;fill-opacity:1;fill-rule:evenodd;stroke:currentColor;stroke-width:9.19666767;stroke-linecap:butt;stroke-linejoin:miter;stroke-miterlimit:4;stroke-dasharray:none;stroke-dashoffset:0;stroke-opacity:1" />
      <ellipse
         style="fill:none;fill-opacity:1;fill-rule:evenodd;stroke:currentColor;stroke-width:9.19666767;stroke-linecap:butt;stroke-linejoin:miter;stroke-miterlimit:4;stroke-dasharray:none;stroke-dashoffset:0;stroke-opacity:1"
         id="ellipse4214"
         cx="139.73048"
         cy="179.50443"
         rx="13.311094"
         ry="13.14458" />
      <ellipse
         ry="10.144562"
         rx="9.7177734"
         cy="150.66141"
         cx="119.9854"
         id="ellipse4216"
         style="fill:none;fill-opacity:1;fill-rule:evenodd;stroke:currentColor;stroke-width:9.19666767;stroke-linecap:butt;stroke-linejoin:miter;stroke-miterlimit:4;stroke-dasharray:none;stroke-dashoffset:0;stroke-opacity:1" />
      <ellipse
         style="fill:none;fill-opacity:1;fill-rule:evenodd;stroke:currentColor;stroke-width:9.19666767;stroke-linecap:butt;stroke-linejoin:miter;stroke-miterlimit:4;stroke-dasharray:none;stroke-dashoffset:0;stroke-opacity:1"
         id="ellipse4218"
         cx="79.241585"
         cy="150.66141"
         rx="9.7177734"
         ry="10.144562" />
      <path
         sodipodi:nodetypes="ccscccccccccssssssssc"
         inkscape:connector-curvature="0"
         style="fill:none;fill-rule:evenodd;stroke:currentColor;stroke-width:15.99432945;stroke-linecap:butt;stroke-linejoin:round;stroke-miterlimit:4;stroke-dasharray:none;stroke-opacity:1"
         d="m 56.989159,120.86754 h 85.248591 c 0,0 8.93895,6.11268 12.70487,10.3128 3.76592,4.20013 7.35327,9.84733 9.86085,14.40965 2.50758,4.56232 4.53909,8.64876 6.26837,13.9462 1.72928,5.29744 3.3141,10.81689 3.76097,17.74954 0.44687,6.93265 -0.20276,16.41862 -1.88048,23.45475 -1.67773,7.03613 -4.79422,13.43923 -7.52194,18.38346 -2.72772,4.94423 -4.72571,7.44959 -8.14876,11.41042 -3.42306,3.96082 -7.9211,8.42788 -12.53657,12.04433 -4.61546,3.61644 -9.47223,6.92617 -15.04386,9.50868 -5.57162,2.58251 -18.17802,5.70522 -18.17802,5.70522 0,0 -17.070176,2.31543 -30.71456,-2.53565 -5.423376,-1.92821 -8.977249,-2.58552 -15.043872,-5.70522 -7.599696,-3.90807 -14.919267,-8.86266 -20.685321,-15.21389 -7.924686,-8.72893 -14.275848,-19.25418 -18.178011,-30.42779 -3.08993,-8.84782 -4.101852,-18.51505 -3.760965,-27.89214 0.258959,-7.12337 1.906392,-14.24724 4.387792,-20.9191 2.107647,-5.66692 5.684023,-11.11784 8.775596,-15.8478 3.024285,-4.62701 8.349508,-9.69947 11.909726,-12.67824 3.560223,-2.97878 8.775594,-5.70522 8.775594,-5.70522 z"
         id="path4231" />
    </g>
  </g>
</svg>
