<?xml version="1.0" encoding="utf-8"?>
<!-- Generator: Adobe Illustrator 21.0.2, SVG Export Plug-In . SVG Version: 6.00 Build 0)  -->
<svg version="1.1" id="Calque_1" xmlns="http://www.w3.org/2000/svg" xmlns:xlink="http://www.w3.org/1999/xlink" x="0px" y="0px"
	 viewBox="0 0 100 140" style="enable-background:new 0 0 100 140;" xml:space="preserve">
<path d="M88.6,43.9C85.7,25.3,67,13,50,13c-17.7,0-35.7,12.3-38.5,30.9H11v52.3h0.5c2.9,18.6,22.5,31.2,38.5,30.9
	c16.3,0,35.7-12.3,38.6-30.9H89V43.9H88.6z M24,35c0-2.2,1.8-4,4-4s4,1.8,4,4s-1.8,4-4,4S24,37.2,24,35z M68,35c0-2.2,1.8-4,4-4
	s4,1.8,4,4s-1.8,4-4,4S68,37.2,68,35z M21,57.5c0-3,2.5-5.5,5.5-5.5s5.5,2.5,5.5,5.5S29.5,63,26.5,63S21,60.5,21,57.5z M68,57.5
	c0-3,2.5-5.5,5.5-5.5s5.5,2.5,5.5,5.5S76.5,63,73.5,63S68,60.5,68,57.5z M21,87.5c0-3,2.5-5.5,5.5-5.5s5.5,2.5,5.5,5.5
	S29.5,93,26.5,93S21,90.5,21,87.5z M68,87.5c0-3,2.5-5.5,5.5-5.5s5.5,2.5,5.5,5.5S76.5,93,73.5,93S68,90.5,68,87.5z M46,111
	c0-2.2,1.8-4,4-4s4,1.8,4,4s-1.8,4-4,4S46,113.2,46,111z M99.4,39C95.7,16.9,75,0,50,0S4.2,16.9,0.6,39H0v62h0.6
	C4.3,123.1,25,140,50,140s45.8-16.9,49.4-39h0.6V39H99.4z M92.5,42.1H93v55.8h-0.5C89.3,117.8,71.5,133,50,133S10.6,117.8,7.5,97.9
	H7V42.1h0.5C10.7,22.2,28.5,7,50,7S89.4,22.2,92.5,42.1z"/>
</svg>
